HIERARCHY
ROOT Hips
{
	OFFSET 0.00000 0.00000 0.00000
	CHANNELS 6 Xposition Yposition Zposition Zrotation Yrotation Xrotation 
	JOINT LHipJoint
	{
		OFFSET 0 0 0
		CHANNELS 3 Zrotation Yrotation Xrotation
		JOINT LeftUpLeg
		{
			OFFSET 1.57358 -1.76629 0.73362
			CHANNELS 3 Zrotation Yrotation Xrotation
			JOINT LeftLeg
			{
				OFFSET 2.40600 -6.61045 0.00000
				CHANNELS 3 Zrotation Yrotation Xrotation
				JOINT LeftFoot
				{
					OFFSET 2.66168 -7.31291 0.00000
					CHANNELS 3 Zrotation Yrotation Xrotation
					JOINT LeftToeBase
					{
						OFFSET 0.20870 -0.57341 2.12506
						CHANNELS 3 Zrotation Yrotation Xrotation
						End Site
						{
							OFFSET 0.00000 -0.00000 1.10557
						}
					}
				}
			}
		}
	}
	JOINT RHipJoint
	{
		OFFSET 0 0 0
		CHANNELS 3 Zrotation Yrotation Xrotation
		JOINT RightUpLeg
		{
			OFFSET -1.49299 -1.76629 0.73362
			CHANNELS 3 Zrotation Yrotation Xrotation
			JOINT RightLeg
			{
				OFFSET -2.43663 -6.69460 0.00000
				CHANNELS 3 Zrotation Yrotation Xrotation
				JOINT RightFoot
				{
					OFFSET -2.62959 -7.22474 0.00000
					CHANNELS 3 Zrotation Yrotation Xrotation
					JOINT RightToeBase
					{
						OFFSET -0.25784 -0.70841 2.21862
						CHANNELS 3 Zrotation Yrotation Xrotation
						End Site
						{
							OFFSET -0.00000 -0.00000 1.16452
						}
					}
				}
			}
		}
	}
	JOINT LowerBack
	{
		OFFSET 0 0 0
		CHANNELS 3 Zrotation Yrotation Xrotation
		JOINT Spine
		{
			OFFSET -0.00034 2.12399 -0.25450
			CHANNELS 3 Zrotation Yrotation Xrotation
			JOINT Spine1
			{
				OFFSET 0.05594 2.14379 -0.03318
				CHANNELS 3 Zrotation Yrotation Xrotation
				JOINT Neck
				{
					OFFSET 0 0 0
					CHANNELS 3 Zrotation Yrotation Xrotation
					JOINT Neck1
					{
						OFFSET -0.09835 1.62725 0.24211
						CHANNELS 3 Zrotation Yrotation Xrotation
						JOINT Head
						{
							OFFSET 0.10849 1.66041 -0.22648
							CHANNELS 3 Zrotation Yrotation Xrotation
							End Site
							{
								OFFSET 0.04385 1.68267 -0.10541
							}
						}
					}
				}
				JOINT LeftShoulder
				{
					OFFSET 0 0 0
					CHANNELS 3 Zrotation Yrotation Xrotation
					JOINT LeftArm
					{
						OFFSET 3.29108 0.79398 -0.68179
						CHANNELS 3 Zrotation Yrotation Xrotation
						JOINT LeftForeArm
						{
							OFFSET 5.15310 -0.00000 -0.00000
							CHANNELS 3 Zrotation Yrotation Xrotation
							JOINT LeftHand
							{
								OFFSET 3.75138 -0.00000 -0.00000
								CHANNELS 3 Zrotation Yrotation Xrotation
								JOINT LeftFingerBase
								{
									OFFSET 0 0 0
									CHANNELS 3 Zrotation Yrotation Xrotation
									JOINT LeftHandIndex1
									{
										OFFSET 0.52917 -0.00000 0.00000
										CHANNELS 3 Zrotation Yrotation Xrotation
										End Site
										{
											OFFSET 0.42663 -0.00000 0.00000
										}
									}
								}
								JOINT LThumb
								{
									OFFSET 0 0 0
									CHANNELS 3 Zrotation Yrotation Xrotation
									End Site
									{
										OFFSET 0.43315 -0.00000 0.43315
									}
								}
							}
						}
					}
				}
				JOINT RightShoulder
				{
					OFFSET 0 0 0
					CHANNELS 3 Zrotation Yrotation Xrotation
					JOINT RightArm
					{
						OFFSET -3.07414 1.06285 -0.44338
						CHANNELS 3 Zrotation Yrotation Xrotation
						JOINT RightForeArm
						{
							OFFSET -5.29613 -0.00000 0.00000
							CHANNELS 3 Zrotation Yrotation Xrotation
							JOINT RightHand
							{
								OFFSET -3.76144 -0.00000 -0.00000
								CHANNELS 3 Zrotation Yrotation Xrotation
								JOINT RightFingerBase
								{
									OFFSET 0 0 0
									CHANNELS 3 Zrotation Yrotation Xrotation
									JOINT RightHandIndex1
									{
										OFFSET -0.74732 -0.00000 0.00000
										CHANNELS 3 Zrotation Yrotation Xrotation
										End Site
										{
											OFFSET -0.60251 -0.00000 0.00000
										}
									}
								}
								JOINT RThumb
								{
									OFFSET 0 0 0
									CHANNELS 3 Zrotation Yrotation Xrotation
									End Site
									{
										OFFSET -0.61171 -0.00000 0.61171
									}
								}
							}
						}
					}
				}
			}
		}
	}
}
MOTION
Frames: 10
Frame Time: .0083333
-5.5138 17.1105 1.8440 -7.0128 29.2293 0.2624 0.0000 0.0000 0.0000 -17.0014 -11.1980 -34.6528 2.5511 9.9302 28.7509 0.0400 2.1229 -5.1704 0.0471 1.4004 3.8514 0.0000 0.0000 0.0000 25.6489 0.7286 14.6203 -2.3402 -9.5414 27.5040 -0.1205 -0.5891 6.3719 -1.2564 7.1059 -20.0296 3.8709 0.9519 4.3192 3.0872 1.6352 -1.5293 0.8941 0.7633 -3.9905 -9.2012 -3.0239 -15.2819 4.6490 -2.9203 23.9510 2.8220 -1.5951 10.4060 -0.0000 -0.0000 0.0000 -95.4140 12.4539 -17.4929 8.1701 -13.8282 -0.9924 -0.0000 -0.0000 24.2692 19.9928 20.4134 7.2322 -7.1250 0.0000 -0.0000 -8.6241 51.3840 -1.3647 -0.0000 -0.0000 0.0000 83.9537 -1.1915 12.8096 -19.6255 30.1885 -5.3418 0.0000 -0.0000 -1.1473 -18.3586 13.9476 -4.5732 7.1250 -0.0000 -0.0000 6.1969 -15.3740 4.3581
-5.3801 17.1050 2.0616 -6.5741 29.9025 0.0533 0.0000 0.0000 0.0000 -18.0259 -10.6382 -33.7769 2.6436 10.0944 29.2830 0.0257 2.0285 -4.4566 0.0242 1.0038 2.7593 0.0000 0.0000 0.0000 25.2740 0.7071 13.3273 -3.0026 -10.6993 31.2722 -0.2429 0.0195 9.3155 -1.3361 7.3190 -20.6641 3.6313 0.7667 4.8095 2.9535 1.3989 -1.5794 0.9006 0.6451 -4.3246 -9.2378 -3.0540 -15.3504 4.6921 -2.9578 23.8969 2.8373 -1.6095 10.4038 0.0000 0.0000 0.0000 -95.3193 12.4322 -19.1454 8.0331 -13.6065 -0.9599 -0.0000 -0.0000 27.0549 18.0254 18.6367 5.9368 -7.1250 0.0000 -0.0000 -9.9585 49.2475 -1.0525 0.0000 0.0000 0.0000 84.3436 -1.7231 12.1035 -19.5347 30.0777 -5.2962 0.0000 -0.0000 -0.7046 -18.3816 13.7363 -4.5116 7.1250 -0.0000 -0.0000 6.1759 -15.5916 4.3142
-5.2416 17.1284 2.2796 -6.1564 30.3800 -0.0999 0.0000 0.0000 0.0000 -18.8671 -10.0423 -32.8847 2.7263 10.2383 29.7518 0.0329 1.1985 -4.0915 0.0330 1.1729 3.2246 0.0000 0.0000 0.0000 24.8877 1.0460 11.6769 -3.7720 -11.8507 35.2059 -0.4304 -0.0218 12.3879 -0.7983 5.7028 -15.9245 3.2549 0.6411 4.9895 2.9774 1.2066 -1.3513 1.1501 0.5622 -4.1983 -9.2707 -3.1056 -15.7648 4.5319 -2.9394 23.7007 2.7818 -1.6173 10.4100 0.0000 0.0000 0.0000 -95.5142 12.0427 -18.9190 8.0709 -13.6678 -0.9688 -0.0000 -0.0000 27.2725 16.7419 17.2617 5.1008 -7.1250 0.0000 -0.0000 -10.7486 47.6636 -0.7142 0.0000 0.0000 0.0000 84.3824 -1.6016 11.4064 -19.3226 29.8175 -5.1903 0.0000 -0.0000 -0.1522 -18.4156 13.6590 -4.4957 7.1250 -0.0000 -0.0000 6.1508 -15.6689 4.2861
-5.0996 17.1584 2.4917 -5.7290 30.8411 -0.1814 0.0000 0.0000 0.0000 -19.6331 -9.4904 -32.0838 2.8203 10.3984 30.2767 0.0409 0.6902 -4.1373 0.0815 1.8414 5.0675 0.0000 0.0000 0.0000 24.4332 1.5701 9.8207 -4.6100 -12.9307 39.1095 -0.7165 -1.1716 15.6364 -0.2136 2.9755 -8.2104 2.9556 0.5453 5.1032 2.9472 1.0521 -1.1039 1.2984 0.4950 -4.0100 -9.3117 -3.1704 -16.2575 4.5080 -2.9655 23.5055 2.7704 -1.6296 10.4364 -0.0000 -0.0000 0.0000 -95.5688 11.8081 -16.7411 8.2779 -14.0023 -1.0183 -0.0000 -0.0000 25.1961 16.6872 17.3076 5.0963 -7.1250 0.0000 -0.0000 -10.8137 47.7024 -0.7291 -0.0000 -0.0000 0.0000 84.4282 -1.5158 10.8561 -19.1175 29.5644 -5.0887 0.0000 -0.0000 -0.1351 -18.1432 13.6349 -4.4171 7.1250 -0.0000 -0.0000 6.3371 -15.7188 4.4107
-4.9639 17.1767 2.6992 -5.1555 31.2421 -0.1721 0.0000 0.0000 0.0000 -20.5416 -8.7844 -31.2926 2.8807 10.4994 30.6094 0.0484 0.0863 -4.1868 0.0937 1.9746 5.4355 0.0000 0.0000 0.0000 23.7843 1.9716 7.7460 -5.5310 -13.9579 43.0692 -1.0299 -2.2081 18.5684 -0.0103 0.6542 -1.7977 2.5523 0.4644 5.3852 2.8808 0.9197 -0.9237 1.4647 0.4381 -3.9863 -9.4450 -3.2282 -16.7898 4.5593 -2.9713 23.4189 2.8061 -1.6328 10.5110 -0.0000 0.0000 0.0000 -95.6723 11.5977 -14.5459 8.5192 -14.3910 -1.0775 -0.0000 -0.0000 22.7466 17.2874 18.1559 5.5391 -7.1250 0.0000 -0.0000 -10.5097 48.6482 -0.9554 -0.0000 0.0000 0.0000 84.5180 -1.6376 10.6407 -18.9952 29.4127 -5.0285 0.0000 -0.0000 -0.9060 -17.8041 13.2720 -4.2166 7.1250 -0.0000 -0.0000 6.5630 -16.1255 4.5120
-4.8336 17.1832 2.9104 -4.6727 31.6132 -0.2775 0.0000 0.0000 0.0000 -21.2981 -8.0930 -30.4014 2.9286 10.5785 30.8713 0.0568 -1.2755 -4.2374 0.1129 2.1659 5.9644 0.0000 0.0000 0.0000 23.2921 2.2653 5.7299 -6.4900 -14.8869 46.9179 -1.2358 -2.6478 20.3062 -0.0029 -0.3463 0.9514 2.0765 0.3535 5.7094 2.8993 0.7463 -0.7452 1.7643 0.3630 -3.9885 -9.5561 -3.2451 -17.0913 4.5478 -2.9296 23.2593 2.8222 -1.6206 10.5096 -0.0000 0.0000 0.0000 -95.9514 11.1187 -14.6514 8.6089 -14.5349 -1.0999 -0.0000 -0.0000 23.0980 16.9579 18.7158 5.5882 -7.1250 0.0000 -0.0000 -11.0028 49.1662 -1.1429 -0.0000 0.0000 0.0000 84.4059 -1.8058 10.8617 -18.9608 29.3700 -5.0116 0.0000 -0.0000 -1.6428 -17.6167 12.7927 -4.0219 7.1250 -0.0000 -0.0000 6.6850 -16.6381 4.5222
-4.7043 17.1901 3.1180 -3.8199 31.9745 -0.1066 0.0000 0.0000 0.0000 -22.3804 -7.3421 -29.5745 2.9744 10.6534 31.1198 0.0572 -2.5780 -4.3478 0.1329 2.3495 6.4727 0.0000 0.0000 0.0000 22.4389 2.5864 3.7492 -7.4588 -15.7063 50.5888 -1.2004 -2.8412 19.9636 -0.0159 -0.8148 2.2393 1.2535 0.2394 5.9242 2.8179 0.5327 -0.5936 2.1612 0.2734 -3.9549 -9.3179 -3.2101 -17.0168 4.1933 -2.8603 22.7257 2.6564 -1.6037 10.2870 0.0000 0.0000 0.0000 -96.1855 10.6870 -14.0456 8.7736 -14.7989 -1.1416 -0.0000 -0.0000 23.0661 16.2596 18.8264 5.3767 -7.1250 0.0000 -0.0000 -11.7039 49.1725 -1.2194 0.0000 0.0000 0.0000 84.2995 -1.8673 11.0701 -18.8114 29.1837 -4.9386 0.0000 -0.0000 -1.8359 -18.0207 12.9047 -4.1554 7.1250 -0.0000 -0.0000 6.4074 -16.4881 4.3530
-4.5795 17.1988 3.3255 -2.8272 32.3588 0.1456 0.0000 0.0000 0.0000 -23.5318 -6.7343 -28.6653 3.0164 10.7215 31.3463 0.0662 -2.7682 -4.6751 0.2003 2.8820 7.9504 0.0000 0.0000 0.0000 21.4292 2.8299 1.8773 -8.4215 -16.4207 54.0670 -0.9719 -2.5026 17.9591 -0.0071 -0.5442 1.4953 0.3560 0.1333 6.2041 2.6326 0.3184 -0.4452 2.4941 0.1827 -3.9557 -9.0932 -3.2285 -17.2529 3.9446 -2.8628 22.4683 2.5243 -1.6099 10.2315 0.0000 0.0000 0.0000 -96.2027 10.4437 -11.4066 9.1308 -15.3686 -1.2345 -0.0000 -0.0000 20.6511 16.5764 19.5246 5.6813 -7.1250 0.0000 -0.0000 -11.6426 49.9229 -1.4301 0.0000 0.0000 0.0000 84.3351 -1.8182 11.2881 -18.5226 28.8212 -4.7985 0.0000 -0.0000 -2.0194 -18.3166 13.1192 -4.2971 7.1250 -0.0000 -0.0000 6.2070 -16.2394 4.2488
-4.4588 17.2009 3.5377 -1.8788 32.8706 0.4574 0.0000 0.0000 0.0000 -24.6392 -6.1530 -27.7563 3.0312 10.7454 31.4259 0.0725 -2.9280 -4.8983 0.2528 3.2352 8.9342 0.0000 0.0000 0.0000 20.4773 2.8704 0.0208 -9.3524 -17.0292 57.3009 -0.6810 -1.3946 15.1763 -0.0013 0.2316 -0.6362 -0.5436 -0.0101 6.2843 2.4474 0.0482 -0.2710 2.8342 0.0620 -3.8095 -9.2303 -3.2587 -17.6474 4.2125 -2.8973 22.4365 2.6356 -1.6027 10.3027 0.0000 0.0000 0.0000 -95.9580 10.2102 -8.3913 9.4360 -15.8526 -1.3167 -0.0000 -0.0000 18.0618 16.6094 19.2042 5.6039 -7.1250 0.0000 -0.0000 -11.4996 49.6057 -1.3215 0.0000 0.0000 0.0000 84.3690 -1.6421 11.6235 -18.1381 28.3337 -4.6146 0.0000 -0.0000 -2.0599 -18.0278 12.7386 -4.1047 7.1250 -0.0000 -0.0000 6.3997 -16.6599 4.3236
-4.3342 17.1976 3.7422 -0.7169 33.3650 0.9929 0.0000 0.0000 0.0000 -25.9281 -5.7590 -26.7684 3.0151 10.7194 31.3393 0.0754 -3.7203 -5.1729 0.2544 3.2454 8.9628 0.0000 0.0000 0.0000 19.1755 2.8149 -2.0992 -10.2280 -17.5361 60.2477 -0.4616 -0.3540 12.7175 -0.0035 0.3813 -1.0476 -1.5082 -0.1681 6.3225 2.1774 -0.2481 -0.1980 3.1262 -0.0715 -3.7366 -9.2808 -3.1606 -17.5969 4.5015 -2.8226 22.1790 2.7553 -1.5359 10.1979 0.0000 0.0000 0.0000 -95.5342 10.0225 -5.7853 9.5900 -16.0958 -1.3591 -0.0000 -0.0000 16.4180 15.9619 17.8388 5.0075 -7.1250 0.0000 -0.0000 -11.6592 48.1361 -0.9136 0.0000 0.0000 0.0000 84.3672 -1.5669 12.1087 -17.9378 28.0775 -4.5199 0.0000 -0.0000 -2.6136 -16.5453 11.6006 -3.4187 7.1250 -0.0000 -0.0000 7.4228 -17.9523 4.8142
